<svg width="472" height="395" viewBox="0 0 472 395" fill="none" xmlns="http://www.w3.org/2000/svg">
<g filter="url(#filter0_d_115_5779)">
<path d="M19 15V0H4V15H19ZM376 15H391V0H376V15ZM376 372V387H391V372H376ZM19 372H4V387H19V372ZM296 169.159C296 213.342 331.817 249.159 376 249.159C420.183 249.159 456 213.342 456 169.159C456 124.976 420.183 89.1591 376 89.1591C331.817 89.1591 296 124.976 296 169.159ZM391 326.023V311.023H361V326.023H391ZM19 30H376V0H19V30ZM376 357H19V387H376V357ZM34 372V15H4V372H34ZM361 15V169.159H391V15H361ZM361 326.023V372H391V326.023H361Z" fill="white"/>
<path d="M187.771 189.7H167.471L150.571 167.1C149.038 165.033 148.005 163.233 147.471 161.7C147.005 160.167 146.771 157.867 146.771 154.8V135.6C146.771 134.333 147.038 133.433 147.571 132.9C148.171 132.3 149.105 132 150.371 132H165.771C167.038 132 167.938 132.3 168.471 132.9C169.071 133.433 169.371 134.333 169.371 135.6V152C169.371 152.667 169.405 153.367 169.471 154.1C169.538 154.833 169.805 155.533 170.271 156.2L174.871 163.4C175.205 164 175.538 164.433 175.871 164.7C176.271 164.967 176.738 165.1 177.271 165.1H178.271C178.805 165.1 179.238 164.967 179.571 164.7C179.971 164.433 180.338 164 180.671 163.4L185.271 156.2C185.738 155.533 186.005 154.833 186.071 154.1C186.138 153.367 186.171 152.667 186.171 152V135.6C186.171 134.333 186.438 133.433 186.971 132.9C187.571 132.3 188.505 132 189.771 132H204.671C205.938 132 206.838 132.3 207.371 132.9C207.971 133.433 208.271 134.333 208.271 135.6V154.8C208.271 157.867 208.005 160.167 207.471 161.7C206.938 163.233 205.938 165.033 204.471 167.1L187.771 189.7ZM185.671 204H169.471C168.205 204 167.271 203.733 166.671 203.2C166.138 202.6 165.871 201.667 165.871 200.4V181.6H189.271V200.4C189.271 201.667 188.971 202.6 188.371 203.2C187.838 203.733 186.938 204 185.671 204ZM285.979 185.1C285.979 188.167 285.513 190.967 284.579 193.5C283.713 195.967 282.113 198.1 279.779 199.9C277.513 201.633 274.379 203 270.379 204C266.379 205 261.279 205.5 255.079 205.5C248.879 205.5 243.779 205 239.779 204C235.779 203 232.613 201.633 230.279 199.9C228.013 198.1 226.413 195.967 225.479 193.5C224.613 190.967 224.179 188.167 224.179 185.1V135.6C224.179 134.333 224.446 133.433 224.979 132.9C225.579 132.3 226.513 132 227.779 132H243.479C244.746 132 245.646 132.3 246.179 132.9C246.779 133.433 247.079 134.333 247.079 135.6V181.2C247.079 182.533 247.579 183.667 248.579 184.6C249.579 185.467 251.813 185.9 255.279 185.9C258.813 185.9 261.079 185.467 262.079 184.6C263.079 183.667 263.579 182.533 263.579 181.2V135.6C263.579 134.333 263.846 133.433 264.379 132.9C264.979 132.3 265.913 132 267.179 132H282.379C283.646 132 284.546 132.3 285.079 132.9C285.679 133.433 285.979 134.333 285.979 135.6V185.1ZM330.389 153L325.689 168.2H341.389L336.689 153C336.422 152.4 336.122 151.967 335.789 151.7C335.522 151.433 335.189 151.3 334.789 151.3H332.289C331.889 151.3 331.522 151.433 331.189 151.7C330.922 151.967 330.655 152.4 330.389 153ZM324.689 200.4C324.689 201.667 324.389 202.6 323.789 203.2C323.255 203.733 322.355 204 321.089 204H306.389C305.122 204 304.189 203.733 303.589 203.2C303.055 202.6 302.789 201.667 302.789 200.4V174C302.789 172 303.089 169.7 303.689 167.1C304.355 164.5 305.355 161.467 306.689 158L315.389 135.3C315.789 134.167 316.389 133.333 317.189 132.8C318.055 132.267 319.155 132 320.489 132H347.389C348.655 132 349.689 132.267 350.489 132.8C351.355 133.333 351.989 134.167 352.389 135.3L361.089 158C362.422 161.467 363.389 164.5 363.989 167.1C364.655 169.7 364.989 172 364.989 174V200.4C364.989 201.667 364.689 202.6 364.089 203.2C363.555 203.733 362.655 204 361.389 204H346.289C344.955 204 343.955 203.733 343.289 203.2C342.689 202.6 342.389 201.667 342.389 200.4V186.4H324.689V200.4ZM400.936 204H385.936C384.669 204 383.736 203.733 383.136 203.2C382.602 202.6 382.336 201.667 382.336 200.4V135.6C382.336 134.333 382.602 133.433 383.136 132.9C383.736 132.3 384.669 132 385.936 132H396.336C397.602 132 398.669 132.2 399.536 132.6C400.469 133 401.369 133.7 402.236 134.7L421.636 156.9V135.6C421.636 134.333 421.902 133.433 422.436 132.9C423.036 132.3 423.969 132 425.236 132H440.236C441.502 132 442.402 132.3 442.936 132.9C443.536 133.433 443.836 134.333 443.836 135.6V200.4C443.836 201.667 443.536 202.6 442.936 203.2C442.402 203.733 441.502 204 440.236 204H425.236C423.969 204 423.036 203.733 422.436 203.2C421.902 202.6 421.636 201.667 421.636 200.4V188.1L404.536 167.4V200.4C404.536 201.667 404.236 202.6 403.636 203.2C403.102 203.733 402.202 204 400.936 204ZM186.524 340.3C185.257 340.3 184.324 340 183.724 339.4C183.19 338.867 182.924 337.967 182.924 336.7V323.3C182.924 322.033 183.19 321.133 183.724 320.6C184.324 320 185.257 319.7 186.524 319.7H238.724C239.99 319.7 240.89 320 241.424 320.6C242.024 321.133 242.324 322.033 242.324 323.3V336.7C242.324 337.967 242.024 338.867 241.424 339.4C240.89 340 239.99 340.3 238.724 340.3H186.524ZM312.961 258H327.861C329.128 258 330.028 258.3 330.561 258.9C331.161 259.433 331.461 260.333 331.461 261.6V300.4C331.461 302.533 331.361 304.533 331.161 306.4C331.028 308.2 330.528 310.333 329.661 312.8L324.661 326.4C324.328 327.4 323.828 328.267 323.161 329C322.561 329.667 321.728 330 320.661 330H307.361C306.295 330 305.328 329.767 304.461 329.3C303.595 328.833 303.028 328.067 302.761 327L298.161 310.7C297.961 310.033 297.695 309.6 297.361 309.4C297.095 309.133 296.761 309 296.361 309H295.461C295.061 309 294.695 309.133 294.361 309.4C294.095 309.6 293.861 310.033 293.661 310.7L288.961 327C288.695 328 288.195 328.767 287.461 329.3C286.728 329.767 285.828 330 284.761 330H271.561C270.495 330 269.561 329.667 268.761 329C268.028 328.333 267.495 327.467 267.161 326.4L262.161 312.6C261.295 310.133 260.761 308 260.561 306.2C260.428 304.333 260.361 302.333 260.361 300.2V261.6C260.361 260.333 260.628 259.433 261.161 258.9C261.761 258.3 262.695 258 263.961 258H279.361C280.628 258 281.528 258.3 282.061 258.9C282.661 259.433 282.961 260.333 282.961 261.6V298.4L288.761 285.8C289.295 284.667 289.995 283.867 290.861 283.4C291.728 282.933 292.795 282.7 294.061 282.7H298.261C299.528 282.7 300.595 282.933 301.461 283.4C302.328 283.867 303.028 284.667 303.561 285.8L309.361 298.4V261.6C309.361 260.333 309.628 259.433 310.161 258.9C310.761 258.3 311.695 258 312.961 258ZM410.667 311.1C410.667 314.167 410.2 316.967 409.267 319.5C408.4 321.967 406.8 324.1 404.467 325.9C402.2 327.633 399.067 329 395.067 330C391.067 331 385.967 331.5 379.767 331.5C373.567 331.5 368.467 331 364.467 330C360.467 329 357.3 327.633 354.967 325.9C352.7 324.1 351.1 321.967 350.167 319.5C349.3 316.967 348.867 314.167 348.867 311.1V261.6C348.867 260.333 349.133 259.433 349.667 258.9C350.267 258.3 351.2 258 352.467 258H368.167C369.433 258 370.333 258.3 370.867 258.9C371.467 259.433 371.767 260.333 371.767 261.6V307.2C371.767 308.533 372.267 309.667 373.267 310.6C374.267 311.467 376.5 311.9 379.967 311.9C383.5 311.9 385.767 311.467 386.767 310.6C387.767 309.667 388.267 308.533 388.267 307.2V261.6C388.267 260.333 388.533 259.433 389.067 258.9C389.667 258.3 390.6 258 391.867 258H407.067C408.333 258 409.233 258.3 409.767 258.9C410.367 259.433 410.667 260.333 410.667 261.6V311.1Z" fill="black"/>
</g>
<defs>
<filter id="filter0_d_115_5779" x="0" y="0" width="476" height="395" filterUnits="userSpaceOnUse" color-interpolation-filters="sRGB">
<feFlood flood-opacity="0" result="BackgroundImageFix"/>
<feColorMatrix in="SourceAlpha" type="matrix" values="0 0 0 0 0 0 0 0 0 0 0 0 0 0 0 0 0 0 127 0" result="hardAlpha"/>
<feOffset dy="4"/>
<feGaussianBlur stdDeviation="2"/>
<feComposite in2="hardAlpha" operator="out"/>
<feColorMatrix type="matrix" values="0 0 0 0 0 0 0 0 0 0 0 0 0 0 0 0 0 0 0.25 0"/>
<feBlend mode="normal" in2="BackgroundImageFix" result="effect1_dropShadow_115_5779"/>
<feBlend mode="normal" in="SourceGraphic" in2="effect1_dropShadow_115_5779" result="shape"/>
</filter>
</defs>
</svg>
